<svg
   viewBox="0 0 24 24"
   width="24"
   height="24"
   fill="#321239"
   xmlns="http://www.w3.org/2000/svg">
   <rect
      fill="#fff4ff"
      width="20"
      height="20"
      x="2"
      y="2"
      ry="1.5" />
      <g transform="matrix(0.91409572,0,0,0.91409572,1.0308515,1.0308514)">
         <path d="M 9.7086443,20.227525 C 11.192687,19.643913 10.867532,18.034811 10.117174,17.01766 9.3751511,15.975496 8.3496641,15.258488 7.3158351,14.566491 c -0.733682,-0.46689 -1.409005,-1.050503 -1.95093,-1.717487 -0.233445,-0.27513 -0.708672,-0.783707 -0.225107,-0.883753 0.4919,-0.100034 1.342307,0.383514 1.775847,0.566936 0.758696,0.316817 1.509054,0.68338 2.209388,1.116921 L 9.9671033,12.232044 C 8.6664811,11.373301 6.9990181,10.614605 5.4482781,10.389497 c -0.883755,-0.1334 -1.817534,0.05002 -2.117677,1.008815 -0.266795,0.825393 0.15841,1.659125 0.641973,2.309436 1.142212,1.525729 2.918059,2.25941 4.243692,3.576708 0.28347,0.27513 0.6253,0.600285 0.792045,0.9838 0.175083,0.366842 0.1334,0.391853 -0.258459,0.391853 -1.033823,0 -2.326109,-0.808719 -3.168177,-1.342304 l -0.842069,1.417341 c 1.275609,0.783708 3.409963,2.009292 4.9690382,1.492379" />
         <path d="m 11.910437,11.376812 v 1.112962 l 5.217009,-5.2170109 -0.544887,-0.579668 m 3.512786,-2.875152 0.486921,0.486921 c 0.22607,0.22607 0.22607,0.591261 0,0.817332 l -1.808563,1.808563 1.541916,1.5535093 -0.817331,0.817332 -0.823129,-0.823128 -5.170637,5.1706366 -2.75342,-10e-7 v -2.753422 l 5.170636,-5.1706359 -0.82313,-0.823128 0.817333,-0.817332 1.547712,1.547713 1.808563,-1.808563 c 0.231867,-0.231867 0.597058,-0.231867 0.823128,-0.0058 z" />
   </g>
</svg>
